<?xml version="1.0" encoding="utf-8"?>
<!-- Generator: Adobe Illustrator 16.0.0, SVG Export Plug-In . SVG Version: 6.00 Build 0)  -->
<!DOCTYPE svg PUBLIC "-//W3C//DTD SVG 1.1//EN" "http://www.w3.org/Graphics/SVG/1.1/DTD/svg11.dtd">
<svg version="1.1" id="Layer_1" xmlns="http://www.w3.org/2000/svg" xmlns:xlink="http://www.w3.org/1999/xlink" x="0px" y="0px"
	 width="200px" height="200px" viewBox="0 0 200 200" enable-background="new 0 0 200 200" xml:space="preserve">
<rect fill="#203e59" width="200" height="200"/>	 









<g id="triangleRow">
	<g transform="translate(-25 0) rotate(180 25 25)">	 
		<polygon points="25, 0 50, 50 0, 50">
			<animate attributeName="fill" values="#49a1eb;#1d3c56;#49a1eb" dur="3s" repeatCount="indefinite" />
		</polygon>
	</g>	 
	<g transform="translate(0 0)">	 
		<polygon points="25, 0 50, 50 0, 50">
			<animate attributeName="fill" values="#1d3c56;#49a1eb;#1d3c56" dur="8s" repeatCount="indefinite" />
		</polygon>
	</g>
	<g transform="translate(25 0) rotate(180 25 25)">	 
		<polygon points="25, 0 50, 50 0, 50">
			<animate attributeName="fill" values="#49a1eb;#1d3c56;#49a1eb" dur="10s" repeatCount="indefinite" />
		</polygon>
	</g>
	<g transform="translate(50 0)">	 
		<polygon points="25, 0 50, 50 0, 50">
			<animate attributeName="fill" values="#1d3c56;#49a1eb;#1d3c56" dur="4s" repeatCount="indefinite" />
		</polygon>
	</g>
	<g transform="translate(75 0) rotate(180 25 25)">	 
		<polygon points="25, 0 50, 50 0, 50">
			<animate attributeName="fill" values="#49a1eb;#1d3c56;#49a1eb" dur="13s" repeatCount="indefinite" />
		</polygon>
	</g>
	<g transform="translate(100 0)">	 
		<polygon points="25, 0 50, 50 0, 50">
			<animate attributeName="fill" values="#1d3c56;#49a1eb;#1d3c56;#1d3c56;" dur="3s" repeatCount="indefinite" />
		</polygon>
	</g>
	<g transform="translate(125 0) rotate(180 25 25)">	 
		<polygon points="25, 0 50, 50 0, 50">
			<animate attributeName="fill" values="#49a1eb;#1d3c56;#49a1eb;" dur="5s" repeatCount="indefinite" />
		</polygon>
	</g>
	<g transform="translate(150 0)">	 
		<polygon points="25, 0 50, 50 0, 50">
			<animate attributeName="fill" values="#1d3c56;#49a1eb;#1d3c56" dur="7s" repeatCount="indefinite" />
		</polygon>
	</g>
	<g transform="translate(175 0) rotate(180 25 25)">	 
		<polygon points="25, 0 50, 50 0, 50">
			<animate attributeName="fill" values="#49a1eb;#1d3c56;#49a1eb" dur="8s" repeatCount="indefinite" />
		</polygon>
	</g>
</g>




<use x="25" y="50" xlink:href="#triangleRow" />

<use x="-25" y="100" xlink:href="#triangleRow" />

<use x="-50" y="150" xlink:href="#triangleRow" />








<linearGradient id="SVGID_1_" gradientUnits="userSpaceOnUse" x1="100.0005" y1="200" x2="100.0005" y2="4.882813e-004">
	<stop  offset="0" style="stop-color:#007DFF"/>
	<stop  offset="1" style="stop-color:#007DFF;stop-opacity:0"/>
</linearGradient>
<rect fill="url(#SVGID_1_)" width="200" height="200"/>
</svg>
